 http://leetleech.org/images/36026914625846342634.jpg

Screens:
 
http://leetleech.org/images/18754665048253635877.jpg
 
http://leetleech.org/images/41031521797633808648.jpg
 
http://leetleech.org/images/36286884478841272951.jpg
 
http://leetleech.org/images/22237885326194830381.jpg
 
http://leetleech.org/images/66979390681993265835.jpg

Alternative:
 
http://www.postimg.com/image/28000/27467.jpg 
http://www.postimg.com/image/28000/27468.jpg 
http://www.postimg.com/image/28000/27469.jpg 
http://www.postimg.com/image/28000/27470.jpg 
http://www.postimg.com/image/28000/27471.jpg

ScreenCaps:
 
http://www.postimg.com/28000/27472.jpg

The Tourist (2010) R5 XviD-MAX

Format                           : AVI
Format/Info                      : Audio Video Interleave
Format profile                   : OpenDML
File size                        : 1.41 GiB
Duration                         : 1h 39mn
Overall bit rate                 : 2 031 Kbps
Writing application              : AVI-Mux GUI 1.17.8.3, Feb 16 201019:42:50

Video
ID                               : 0
Format                           : MPEG-4 Visual
Format profile                   : AdvancedSimple@L5
Format settings, BVOP            : Yes
Format settings, QPel            : No
Format settings, GMC             : No warppoints
Format settings, Matrix          : Custom
Codec ID                         : XVID
Codec ID/Hint                    : XviD
Duration                         : 1h 39mn
Bit rate                         : 1 578 Kbps
Width                            : 720 pixels
Height                           : 304 pixels
Display aspect ratio             : 2.35:1
Frame rate                       : 25.000 fps
Resolution                       : 24 bits
Colorimetry                      : 4:2:0
Scan type                        : Progressive
Bits/(Pixel*Frame)               : 0.288
Stream size                      : 1.09 GiB (78%)
Writing library                  : XviD 58

Audio
ID                               : 1
Format                           : AC-3
Format/Info                      : Audio Coding 3
Codec ID                         : 2000
Duration                         : 1h 39mn
Bit rate mode                    : Constant
Bit rate                         : 448 Kbps
Channel(s)                       : 6 channels
Channel positions                : Front: L C R, Surround: L R, LFE
Sampling rate                    : 48.0 KHz
Stream size                      : 318 MiB (22%)
Alignment                        : Aligned on interleaves
Interleave, duration             : 64 ms (1.60 video frames)
Interleave, preload duration     : 192 ms
 
Source: R5 DVDRip+AC3 studio audio (perfect a/v/sync quality,full/few foreign parts only-english subtitles 

included,sample also present)
 
http://www.imdb.com/title/tt1243957/

The Tourist (2010) R5 XviD-MAX Torrent Free Download
 
http://thepiratebay.org/user/extremezone/0/7

How To Get Your Maxspeed (uTorrent)

Torrent Client - Preferences - Bandwidth - Number of connections - Set aprox. 500 for each 
Torrent Client - Preferences - BiTorrent - Protocol Encryption - Forced
Bandwidth Allocation - High (Set download/upload limit - Unlimited)
Stop Other Active Torrents - Start downloading and wait for connections.
Enjoy and Seed for at least 1:1 ratio. Don't forget to say thanks/leave reviews.
Before downloading you should check/google search sample "release name""sample".
Greets to all actual/future p2p/scene QUALITY groups and affiliate websites.
Don't trust IMDb robot or bad ratings,always watch some trailers first.
Ignore stupid comments/fake/mislabeled/no-DVDrips/CAM/TS/RAR uploads.
Please spread this release/torrent to your friends/forums/etc.
If you need translation subs visit some subtitles sites.
Report if you see online streaming or other spam links.
Recommended movie player VLC PLAYER.